# WaveFront *.obj file (generated by Autodesk ATF)

mtllib gasket.mtl

g MeshFeature1

v -93.562679 45.056300 11.500000
v -93.562679 45.056300 10.000000
v -93.500004 44.499998 11.500000
v -93.500004 44.499998 10.000000
v -93.562679 43.943701 11.500000
v -93.562679 43.943701 10.000000
v -93.747578 43.415289 11.500000
v -93.747578 43.415289 10.000000
v -94.045420 42.941275 11.500000
v -94.045420 42.941275 10.000000
v -94.441280 42.545424 11.500000
v -94.441280 42.545424 10.000000
v -94.915295 42.247577 11.500000
v -94.915295 42.247577 10.000000
v -95.443697 42.062678 11.500000
v -95.443697 42.062678 10.000000
v -96.000004 41.999998 11.500000
v -96.000004 41.999998 10.000000
v -96.556301 42.062678 11.500000
v -96.556301 42.062678 10.000000
v -97.084713 42.247577 11.500000
v -97.084713 42.247577 10.000000
v -97.558727 42.545424 11.500000
v -97.558727 42.545424 10.000000
v -97.954578 42.941275 11.500000
v -97.954578 42.941275 10.000000
v -98.252420 43.415289 11.500000
v -98.252420 43.415289 10.000000
v -98.437319 43.943701 11.500000
v -98.437319 43.943701 10.000000
v -98.500004 44.499998 11.500000
v -98.500004 44.499998 10.000000
v -98.437319 45.056300 11.500000
v -98.437319 45.056300 10.000000
v -98.252420 45.584707 11.500000
v -98.252420 45.584707 10.000000
v -97.954578 46.058722 11.500000
v -97.954578 46.058722 10.000000
v -97.558727 46.454577 11.500000
v -97.558727 46.454577 10.000000
v -97.084713 46.752424 11.500000
v -97.084713 46.752424 10.000000
v -96.556301 46.937323 11.500000
v -96.556301 46.937323 10.000000
v -96.000004 46.999998 11.500000
v -96.000004 46.999998 10.000000
v -95.443697 46.937323 11.500000
v -95.443697 46.937323 10.000000
v -94.915295 46.752424 11.500000
v -94.915295 46.752424 10.000000
v -94.441280 46.454577 11.500000
v -94.441280 46.454577 10.000000
v -94.045420 46.058722 11.500000
v -94.045420 46.058722 10.000000
v -93.747578 45.584707 11.500000
v -93.747578 45.584707 10.000000
v -182.062683 45.056300 11.500000
v -182.062683 45.056300 10.000000
v -182.000008 44.499998 11.500000
v -182.000008 44.499998 10.000000
v -182.062683 43.943701 11.500000
v -182.062683 43.943701 10.000000
v -182.247581 43.415289 11.500000
v -182.247581 43.415289 10.000000
v -182.545433 42.941275 11.500000
v -182.545433 42.941275 10.000000
v -182.941265 42.545424 11.500000
v -182.941265 42.545424 10.000000
v -183.415298 42.247577 11.500000
v -183.415298 42.247577 10.000000
v -183.943691 42.062678 11.500000
v -183.943691 42.062678 10.000000
v -184.500008 41.999998 11.500000
v -184.500008 41.999998 10.000000
v -185.056305 42.062678 11.500000
v -185.056305 42.062678 10.000000
v -185.584717 42.247577 11.500000
v -185.584717 42.247577 10.000000
v -186.058731 42.545424 11.500000
v -186.058731 42.545424 10.000000
v -186.454582 42.941275 11.500000
v -186.454582 42.941275 10.000000
v -186.752434 43.415289 11.500000
v -186.752434 43.415289 10.000000
v -186.937313 43.943701 11.500000
v -186.937313 43.943701 10.000000
v -187.000008 44.499998 11.500000
v -187.000008 44.499998 10.000000
v -186.937313 45.056300 11.500000
v -186.937313 45.056300 10.000000
v -186.752434 45.584707 11.500000
v -186.752434 45.584707 10.000000
v -186.454582 46.058722 11.500000
v -186.454582 46.058722 10.000000
v -186.058731 46.454577 11.500000
v -186.058731 46.454577 10.000000
v -185.584717 46.752424 11.500000
v -185.584717 46.752424 10.000000
v -185.056305 46.937323 11.500000
v -185.056305 46.937323 10.000000
v -184.500008 46.999998 11.500000
v -184.500008 46.999998 10.000000
v -183.943691 46.937323 11.500000
v -183.943691 46.937323 10.000000
v -183.415298 46.752424 11.500000
v -183.415298 46.752424 10.000000
v -182.941265 46.454577 11.500000
v -182.941265 46.454577 10.000000
v -182.545433 46.058722 11.500000
v -182.545433 46.058722 10.000000
v -182.247581 45.584707 11.500000
v -182.247581 45.584707 10.000000
v -93.562679 -43.443699 11.500000
v -93.562679 -43.443699 10.000000
v -93.500004 -44.000001 11.500000
v -93.500004 -44.000001 10.000000
v -93.562679 -44.556303 11.500000
v -93.562679 -44.556303 10.000000
v -93.747578 -45.084710 11.500000
v -93.747578 -45.084710 10.000000
v -94.045420 -45.558724 11.500000
v -94.045420 -45.558724 10.000000
v -94.441280 -45.954580 11.500000
v -94.441280 -45.954580 10.000000
v -94.915295 -46.252422 11.500000
v -94.915295 -46.252422 10.000000
v -95.443697 -46.437321 11.500000
v -95.443697 -46.437321 10.000000
v -96.000004 -46.500001 11.500000
v -96.000004 -46.500001 10.000000
v -96.556301 -46.437321 11.500000
v -96.556301 -46.437321 10.000000
v -97.084713 -46.252422 11.500000
v -97.084713 -46.252422 10.000000
v -97.558727 -45.954580 11.500000
v -97.558727 -45.954580 10.000000
v -97.954578 -45.558724 11.500000
v -97.954578 -45.558724 10.000000
v -98.252420 -45.084710 11.500000
v -98.252420 -45.084710 10.000000
v -98.437319 -44.556303 11.500000
v -98.437319 -44.556303 10.000000
v -98.500004 -44.000001 11.500000
v -98.500004 -44.000001 10.000000
v -98.437319 -43.443699 11.500000
v -98.437319 -43.443699 10.000000
v -98.252420 -42.915292 11.500000
v -98.252420 -42.915292 10.000000
v -97.954578 -42.441278 11.500000
v -97.954578 -42.441278 10.000000
v -97.558727 -42.045422 11.500000
v -97.558727 -42.045422 10.000000
v -97.084713 -41.747580 11.500000
v -97.084713 -41.747580 10.000000
v -96.556301 -41.562681 11.500000
v -96.556301 -41.562681 10.000000
v -96.000004 -41.500001 11.500000
v -96.000004 -41.500001 10.000000
v -95.443697 -41.562681 11.500000
v -95.443697 -41.562681 10.000000
v -94.915295 -41.747580 11.500000
v -94.915295 -41.747580 10.000000
v -94.441280 -42.045422 11.500000
v -94.441280 -42.045422 10.000000
v -94.045420 -42.441278 11.500000
v -94.045420 -42.441278 10.000000
v -93.747578 -42.915292 11.500000
v -93.747578 -42.915292 10.000000
v -182.062683 -43.443699 11.500000
v -182.062683 -43.443699 10.000000
v -182.000008 -44.000001 11.500000
v -182.000008 -44.000001 10.000000
v -182.062683 -44.556303 11.500000
v -182.062683 -44.556303 10.000000
v -182.247581 -45.084710 11.500000
v -182.247581 -45.084710 10.000000
v -182.545433 -45.558724 11.500000
v -182.545433 -45.558724 10.000000
v -182.941265 -45.954580 11.500000
v -182.941265 -45.954580 10.000000
v -183.415298 -46.252422 11.500000
v -183.415298 -46.252422 10.000000
v -183.943691 -46.437321 11.500000
v -183.943691 -46.437321 10.000000
v -184.500008 -46.500001 11.500000
v -184.500008 -46.500001 10.000000
v -185.056305 -46.437321 11.500000
v -185.056305 -46.437321 10.000000
v -185.584717 -46.252422 11.500000
v -185.584717 -46.252422 10.000000
v -186.058731 -45.954580 11.500000
v -186.058731 -45.954580 10.000000
v -186.454582 -45.558724 11.500000
v -186.454582 -45.558724 10.000000
v -186.752434 -45.084710 11.500000
v -186.752434 -45.084710 10.000000
v -186.937313 -44.556303 11.500000
v -186.937313 -44.556303 10.000000
v -187.000008 -44.000001 11.500000
v -187.000008 -44.000001 10.000000
v -186.937313 -43.443699 11.500000
v -186.937313 -43.443699 10.000000
v -186.752434 -42.915292 11.500000
v -186.752434 -42.915292 10.000000
v -186.454582 -42.441278 11.500000
v -186.454582 -42.441278 10.000000
v -186.058731 -42.045422 11.500000
v -186.058731 -42.045422 10.000000
v -185.584717 -41.747580 11.500000
v -185.584717 -41.747580 10.000000
v -185.056305 -41.562681 11.500000
v -185.056305 -41.562681 10.000000
v -184.500008 -41.500001 11.500000
v -184.500008 -41.500001 10.000000
v -183.943691 -41.562681 11.500000
v -183.943691 -41.562681 10.000000
v -183.415298 -41.747580 11.500000
v -183.415298 -41.747580 10.000000
v -182.941265 -42.045422 11.500000
v -182.941265 -42.045422 10.000000
v -182.545433 -42.441278 11.500000
v -182.545433 -42.441278 10.000000
v -182.247581 -42.915292 11.500000
v -182.247581 -42.915292 10.000000
v -139.913120 49.999924 10.000000
v -139.913120 49.999924 11.500000
v -139.896450 50.000000 10.000000
v -139.896450 50.000000 11.500000
v -141.743317 50.000000 10.000000
v -141.743317 50.000000 11.500000
v -141.464138 49.978557 10.000000
v -141.464138 49.978557 11.500000
v -189.941063 2.426770 11.500000
v -189.941063 2.426770 10.000000
v -189.758530 4.908066 11.500000
v -189.758530 4.908066 10.000000
v -189.452782 7.377208 11.500000
v -189.452782 7.377208 10.000000
v -189.024563 9.828085 11.500000
v -189.024563 9.828085 10.000000
v -188.474998 12.254627 11.500000
v -188.474998 12.254627 10.000000
v -187.805367 14.650824 11.500000
v -187.805367 14.650824 10.000000
v -187.017384 17.010746 11.500000
v -187.017384 17.010746 10.000000
v -186.112976 19.328549 11.500000
v -186.112976 19.328549 10.000000
v -185.094414 21.598492 11.500000
v -185.094414 21.598492 10.000000
v -183.964176 23.814957 11.500000
v -183.964176 23.814957 10.000000
v -182.725067 25.972452 11.500000
v -182.725067 25.972452 10.000000
v -181.380196 28.065641 11.500000
v -181.380196 28.065641 10.000000
v -179.932842 30.089335 11.500000
v -179.932842 30.089335 10.000000
v -178.386631 32.038529 11.500000
v -178.386631 32.038529 10.000000
v -176.745338 33.908393 11.500000
v -176.745338 33.908393 10.000000
v -175.013103 35.694299 11.500000
v -175.013103 35.694299 10.000000
v -173.194160 37.391820 11.500000
v -173.194160 37.391820 10.000000
v -171.293011 38.996758 11.500000
v -171.293011 38.996758 10.000000
v -169.314384 40.505137 11.500000
v -169.314384 40.505137 10.000000
v -167.263203 41.913223 11.500000
v -167.263203 41.913223 10.000000
v -165.144482 43.217535 11.500000
v -165.144482 43.217535 10.000000
v -162.963524 44.414830 11.500000
v -162.963524 44.414830 10.000000
v -160.725670 45.502157 11.500000
v -160.725670 45.502157 10.000000
v -158.436537 46.476812 11.500000
v -158.436537 46.476812 10.000000
v -156.101742 47.336392 11.500000
v -156.101742 47.336392 10.000000
v -153.727083 48.078761 11.500000
v -153.727083 48.078761 10.000000
v -151.318417 48.702087 11.500000
v -151.318417 48.702087 10.000000
v -148.881741 49.204822 11.500000
v -148.881741 49.204822 10.000000
v -146.423063 49.585724 11.500000
v -146.423063 49.585724 10.000000
v -143.948498 49.843850 11.500000
v -143.948498 49.843850 10.000000
v -190.000000 2.400351 10.000000
v -190.000000 2.400351 11.500000
v -190.000000 0.000000 10.000000
v -190.000000 0.000000 11.500000
v -140.086775 -49.999924 11.500000
v -140.086775 -49.999924 10.000000
v -140.103350 -49.999895 11.500000
v -140.103350 -49.999895 10.000000
v -142.553377 -49.934759 11.500000
v -142.553377 -49.934759 10.000000
v -144.997272 -49.749646 10.000000
v -144.997272 -49.749646 11.500000
v -147.429152 -49.444995 10.000000
v -147.429152 -49.444995 11.500000
v -149.843187 -49.021540 10.000000
v -149.843187 -49.021540 11.500000
v -152.233562 -48.480301 10.000000
v -152.233562 -48.480301 11.500000
v -154.594555 -47.822576 10.000000
v -154.594555 -47.822576 11.500000
v -156.920490 -47.049942 10.000000
v -156.920490 -47.049942 11.500000
v -159.205751 -46.164260 10.000000
v -159.205751 -46.164260 11.500000
v -161.444874 -45.167656 10.000000
v -161.444874 -45.167656 11.500000
v -163.632469 -44.062529 10.000000
v -163.632469 -44.062529 11.500000
v -165.763283 -42.851524 10.000000
v -165.763283 -42.851524 11.500000
v -167.832203 -41.537561 10.000000
v -167.832203 -41.537561 11.500000
v -169.834232 -40.123796 10.000000
v -169.834232 -40.123796 11.500000
v -171.764565 -38.613620 10.000000
v -171.764565 -38.613620 11.500000
v -173.618603 -37.010665 10.000000
v -173.618603 -37.010665 11.500000
v -175.391865 -35.318782 10.000000
v -175.391865 -35.318782 11.500000
v -177.080059 -33.542037 10.000000
v -177.080059 -33.542037 11.500000
v -178.679180 -31.684701 10.000000
v -178.679180 -31.684701 11.500000
v -180.185375 -29.751234 10.000000
v -180.185375 -29.751234 11.500000
v -181.595001 -27.746282 10.000000
v -181.595001 -27.746282 11.500000
v -182.904682 -25.674663 10.000000
v -182.904682 -25.674663 11.500000
v -184.111290 -23.541350 10.000000
v -184.111290 -23.541350 11.500000
v -185.211887 -21.351476 10.000000
v -185.211887 -21.351476 11.500000
v -186.203861 -19.110301 10.000000
v -186.203861 -19.110301 11.500000
v -187.084808 -16.823206 10.000000
v -187.084808 -16.823206 11.500000
v -187.852631 -14.495690 10.000000
v -187.852631 -14.495690 11.500000
v -188.505478 -12.133344 10.000000
v -188.505478 -12.133344 11.500000
v -189.041786 -9.741846 10.000000
v -189.041786 -9.741846 11.500000
v -189.460258 -7.326940 10.000000
v -189.460258 -7.326940 11.500000
v -189.759865 -4.894429 10.000000
v -189.759865 -4.894429 11.500000
v -189.939919 -2.450158 10.000000
v -189.939919 -2.450158 11.500000
v -140.103350 -50.000000 10.000000
v -140.103350 -50.000000 11.500000
v -138.257809 -50.000000 10.000000
v -138.257809 -50.000000 11.500000
v -138.536806 -49.978585 10.000000
v -138.536806 -49.978585 11.500000
v -139.896450 49.999895 11.500000
v -139.896450 49.999895 10.000000
v -137.467651 49.935832 11.500000
v -137.467651 49.935832 10.000000
v -135.044832 49.753857 10.000000
v -135.044832 49.753857 11.500000
v -132.633715 49.454403 10.000000
v -132.633715 49.454403 11.500000
v -130.239992 49.038172 10.000000
v -130.239992 49.038172 11.500000
v -127.869301 48.506145 10.000000
v -127.869301 48.506145 11.500000
v -125.527258 47.859583 10.000000
v -125.527258 47.859583 11.500000
v -123.219395 47.100015 10.000000
v -123.219395 47.100015 11.500000
v -120.951157 46.229229 10.000000
v -120.951157 46.229229 11.500000
v -118.727894 45.249281 10.000000
v -118.727894 45.249281 11.500000
v -116.554861 44.162493 10.000000
v -116.554861 44.162493 11.500000
v -114.437199 42.971420 10.000000
v -114.437199 42.971420 11.500000
v -112.379885 41.678882 10.000000
v -112.379885 41.678882 11.500000
v -110.387793 40.287929 10.000000
v -110.387793 40.287929 11.500000
v -108.465624 38.801847 10.000000
v -108.465624 38.801847 11.500000
v -106.617908 37.224135 10.000000
v -106.617908 37.224135 11.500000
v -104.849033 35.558536 10.000000
v -104.849033 35.558536 11.500000
v -103.163147 33.808968 10.000000
v -103.163147 33.808968 11.500000
v -101.564245 31.979570 10.000000
v -101.564245 31.979570 11.500000
v -100.056105 30.074658 10.000000
v -100.056105 30.074658 11.500000
v -98.642282 28.098733 10.000000
v -98.642282 28.098733 11.500000
v -97.326107 26.056459 10.000000
v -97.326107 26.056459 11.500000
v -96.110706 23.952661 11.500000
v -96.110706 23.952661 10.000000
v -94.998941 21.792302 10.000000
v -94.998941 21.792302 11.500000
v -93.993435 19.580485 10.000000
v -93.993435 19.580485 11.500000
v -93.096552 17.322432 10.000000
v -93.096552 17.322432 11.500000
v -92.310429 15.023477 10.000000
v -92.310429 15.023477 11.500000
v -91.636915 12.689048 10.000000
v -91.636915 12.689048 11.500000
v -91.077595 10.324657 10.000000
v -91.077595 10.324657 11.500000
v -90.633793 7.935886 10.000000
v -90.633793 7.935886 11.500000
v -90.306568 5.528376 10.000000
v -90.306568 5.528376 11.500000
v -90.096684 3.107813 10.000000
v -90.096684 3.107813 11.500000
v -90.004625 0.679911 10.000000
v -90.004625 0.679911 11.500000
v -90.030613 -1.749597 10.000000
v -90.030613 -1.749597 11.500000
v -90.174608 -4.174973 10.000000
v -90.174608 -4.174973 11.500000
v -90.436249 -6.590491 10.000000
v -90.436249 -6.590491 11.500000
v -90.814924 -8.990447 10.000000
v -90.814924 -8.990447 11.500000
v -91.309738 -11.369174 10.000000
v -91.309738 -11.369174 11.500000
v -91.919518 -13.721056 10.000000
v -91.919518 -13.721056 11.500000
v -92.642841 -16.040537 10.000000
v -92.642841 -16.040537 11.500000
v -93.477974 -18.322144 10.000000
v -93.477974 -18.322144 11.500000
v -94.422960 -20.560486 10.000000
v -94.422960 -20.560486 11.500000
v -95.475569 -22.750280 10.000000
v -95.475569 -22.750280 11.500000
v -96.633320 -24.886355 11.500000
v -96.633320 -24.886355 10.000000
v -97.893457 -26.963665 10.000000
v -97.893457 -26.963665 11.500000
v -99.253025 -28.977306 10.000000
v -99.253025 -28.977306 11.500000
v -100.708809 -30.922525 10.000000
v -100.708809 -30.922525 11.500000
v -102.257366 -32.794728 10.000000
v -102.257366 -32.794728 11.500000
v -103.895054 -34.589493 10.000000
v -103.895054 -34.589493 11.500000
v -105.617990 -36.302581 10.000000
v -105.617990 -36.302581 11.500000
v -107.422113 -37.929950 10.000000
v -107.422113 -37.929950 11.500000
v -109.303150 -39.467759 10.000000
v -109.303150 -39.467759 11.500000
v -111.256695 -40.912371 10.000000
v -111.256695 -40.912371 11.500000
v -113.278093 -42.260375 10.000000
v -113.278093 -42.260375 11.500000
v -115.362587 -43.508596 10.000000
v -115.362587 -43.508596 11.500000
v -117.505255 -44.654078 10.000000
v -117.505255 -44.654078 11.500000
v -119.701052 -45.694118 10.000000
v -119.701052 -45.694118 11.500000
v -121.944771 -46.626267 10.000000
v -121.944771 -46.626267 11.500000
v -124.231129 -47.448316 10.000000
v -124.231129 -47.448316 11.500000
v -126.554718 -48.158326 10.000000
v -126.554718 -48.158326 11.500000
v -128.910046 -48.754621 10.000000
v -128.910046 -48.754621 11.500000
v -131.291580 -49.235792 10.000000
v -131.291580 -49.235792 11.500000
v -133.693666 -49.600706 10.000000
v -133.693666 -49.600706 11.500000
v -136.110640 -49.848499 10.000000
v -136.110640 -49.848499 11.500000
v -180.000000 -50.000000 10.000000
v -167.367859 -50.000000 10.000000
v -180.000000 -50.000000 11.500000
v -167.367859 -50.000000 11.500000
v -190.000000 -40.000000 11.500000
v -190.000000 -40.000000 10.000000
v -189.937115 -41.119642 11.500000
v -189.937115 -41.119642 10.000000
v -189.749279 -42.225208 11.500000
v -189.749279 -42.225208 10.000000
v -189.438820 -43.302794 11.500000
v -189.438820 -43.302794 10.000000
v -189.009686 -44.338837 11.500000
v -189.009686 -44.338837 10.000000
v -188.467236 -45.320320 11.500000
v -188.467236 -45.320320 10.000000
v -187.818317 -46.234899 11.500000
v -187.818317 -46.234899 10.000000
v -187.071075 -47.071066 11.500000
v -187.071075 -47.071066 10.000000
v -186.234894 -47.818313 11.500000
v -186.234894 -47.818313 10.000000
v -185.320320 -48.467245 11.500000
v -185.320320 -48.467245 10.000000
v -184.338837 -49.009690 11.500000
v -184.338837 -49.009690 10.000000
v -183.302803 -49.438834 11.500000
v -183.302803 -49.438834 10.000000
v -182.225208 -49.749279 11.500000
v -182.225208 -49.749279 10.000000
v -181.119652 -49.937124 11.500000
v -181.119652 -49.937124 10.000000
v -190.000000 -27.367876 10.000000
v -190.000000 -27.367876 11.500000
v -190.000000 27.367883 11.500000
v -190.000000 27.367883 10.000000
v -191.247978 24.952841 11.500000
v -191.247978 24.952841 10.000000
v -192.379417 22.481046 11.500000
v -192.379417 22.481046 10.000000
v -193.391705 19.958115 11.500000
v -193.391705 19.958115 10.000000
v -194.282570 17.389791 11.500000
v -194.282570 17.389791 10.000000
v -195.049934 14.781914 11.500000
v -195.049934 14.781914 10.000000
v -195.692101 12.140415 11.500000
v -195.692101 12.140415 10.000000
v -196.207619 9.471301 11.500000
v -196.207619 9.471301 10.000000
v -196.595268 6.780645 11.500000
v -196.595268 6.780645 10.000000
v -196.854191 4.074567 11.500000
v -196.854191 4.074567 10.000000
v -196.983795 1.359221 11.500000
v -196.983795 1.359221 10.000000
v -196.983795 -1.359216 11.500000
v -196.983795 -1.359216 10.000000
v -196.854191 -4.074562 11.500000
v -196.854191 -4.074562 10.000000
v -196.595268 -6.780640 11.500000
v -196.595268 -6.780640 10.000000
v -196.207619 -9.471296 11.500000
v -196.207619 -9.471296 10.000000
v -195.692101 -12.140410 11.500000
v -195.692101 -12.140410 10.000000
v -195.049934 -14.781909 11.500000
v -195.049934 -14.781909 10.000000
v -194.282570 -17.389786 11.500000
v -194.282570 -17.389786 10.000000
v -193.391705 -19.958111 11.500000
v -193.391705 -19.958111 10.000000
v -192.379417 -22.481041 11.500000
v -192.379417 -22.481041 10.000000
v -191.247978 -24.952836 11.500000
v -191.247978 -24.952836 10.000000
v -190.000000 40.000000 10.000000
v -190.000000 40.000000 11.500000
v -180.000000 50.000000 11.500000
v -180.000000 50.000000 10.000000
v -181.119652 49.937124 11.500000
v -181.119652 49.937124 10.000000
v -182.225208 49.749279 11.500000
v -182.225208 49.749279 10.000000
v -183.302803 49.438834 11.500000
v -183.302803 49.438834 10.000000
v -184.338837 49.009690 11.500000
v -184.338837 49.009690 10.000000
v -185.320320 48.467245 11.500000
v -185.320320 48.467245 10.000000
v -186.234894 47.818317 11.500000
v -186.234894 47.818317 10.000000
v -187.071075 47.071066 11.500000
v -187.071075 47.071066 10.000000
v -187.818317 46.234899 11.500000
v -187.818317 46.234899 10.000000
v -188.467236 45.320320 11.500000
v -188.467236 45.320320 10.000000
v -189.009686 44.338837 11.500000
v -189.009686 44.338837 10.000000
v -189.438820 43.302794 11.500000
v -189.438820 43.302794 10.000000
v -189.749279 42.225208 11.500000
v -189.749279 42.225208 10.000000
v -189.937115 41.119642 11.500000
v -189.937115 41.119642 10.000000
v -167.367878 50.000000 10.000000
v -167.367878 50.000000 11.500000
v -112.632122 50.000000 11.500000
v -112.632122 50.000000 10.000000
v -115.047169 51.247997 11.500000
v -115.047169 51.247997 10.000000
v -117.518969 52.379427 11.500000
v -117.518969 52.379427 10.000000
v -120.041895 53.391714 11.500000
v -120.041895 53.391714 10.000000
v -122.610226 54.282560 11.500000
v -122.610226 54.282560 10.000000
v -125.218105 55.049944 11.500000
v -125.218105 55.049944 10.000000
v -127.859592 55.692110 11.500000
v -127.859592 55.692110 10.000000
v -130.528698 56.207609 11.500000
v -130.528698 56.207609 10.000000
v -133.219357 56.595263 11.500000
v -133.219357 56.595263 10.000000
v -135.925446 56.854191 11.500000
v -135.925446 56.854191 10.000000
v -138.640795 56.983800 11.500000
v -138.640795 56.983800 10.000000
v -141.359224 56.983800 11.500000
v -141.359224 56.983800 10.000000
v -144.074574 56.854186 11.500000
v -144.074574 56.854186 10.000000
v -146.780653 56.595259 11.500000
v -146.780653 56.595259 10.000000
v -149.471302 56.207609 11.500000
v -149.471302 56.207609 10.000000
v -152.140408 55.692110 11.500000
v -152.140408 55.692110 10.000000
v -154.781904 55.049939 11.500000
v -154.781904 55.049939 10.000000
v -157.389784 54.282560 11.500000
v -157.389784 54.282560 10.000000
v -159.958115 53.391709 11.500000
v -159.958115 53.391709 10.000000
v -162.481041 52.379417 11.500000
v -162.481041 52.379417 10.000000
v -164.952831 51.247993 11.500000
v -164.952831 51.247993 10.000000
v -100.000000 50.000000 10.000000
v -100.000000 50.000000 11.500000
v -90.000000 40.000000 11.500000
v -90.000000 40.000000 10.000000
v -90.062885 41.119642 11.500000
v -90.062885 41.119642 10.000000
v -90.250721 42.225208 11.500000
v -90.250721 42.225208 10.000000
v -90.561161 43.302794 11.500000
v -90.561161 43.302794 10.000000
v -90.990314 44.338837 11.500000
v -90.990314 44.338837 10.000000
v -91.532764 45.320320 11.500000
v -91.532764 45.320320 10.000000
v -92.181683 46.234899 11.500000
v -92.181683 46.234899 10.000000
v -92.928934 47.071066 11.500000
v -92.928934 47.071066 10.000000
v -93.765106 47.818317 11.500000
v -93.765106 47.818317 10.000000
v -94.679680 48.467245 11.500000
v -94.679680 48.467245 10.000000
v -95.661163 49.009690 11.500000
v -95.661163 49.009690 10.000000
v -96.697216 49.438834 11.500000
v -96.697216 49.438834 10.000000
v -97.774792 49.749279 11.500000
v -97.774792 49.749279 10.000000
v -98.880358 49.937124 11.500000
v -98.880358 49.937124 10.000000
v -90.000000 27.367883 10.000000
v -90.000000 27.367883 11.500000
v -90.000000 -27.367883 11.500000
v -90.000000 -27.367883 10.000000
v -88.752012 -24.952812 11.500000
v -88.752012 -24.952812 10.000000
v -87.620583 -22.481017 11.500000
v -87.620583 -22.481017 10.000000
v -86.608295 -19.958092 11.500000
v -86.608295 -19.958092 10.000000
v -85.717449 -17.389768 11.500000
v -85.717449 -17.389768 10.000000
v -84.950066 -14.781893 11.500000
v -84.950066 -14.781893 10.000000
v -84.307899 -12.140397 11.500000
v -84.307899 -12.140397 10.000000
v -83.792400 -9.471287 11.500000
v -83.792400 -9.471287 10.000000
v -83.404751 -6.780633 11.500000
v -83.404751 -6.780633 10.000000
v -83.145819 -4.074558 11.500000
v -83.145819 -4.074558 10.000000
v -83.016214 -1.359214 11.500000
v -83.016214 -1.359214 10.000000
v -83.016214 1.359220 11.500000
v -83.016214 1.359220 10.000000
v -83.145819 4.074563 11.500000
v -83.145819 4.074563 10.000000
v -83.404751 6.780639 11.500000
v -83.404751 6.780639 10.000000
v -83.792400 9.471292 11.500000
v -83.792400 9.471292 10.000000
v -84.307899 12.140403 11.500000
v -84.307899 12.140403 10.000000
v -84.950066 14.781899 11.500000
v -84.950066 14.781899 10.000000
v -85.717449 17.389774 11.500000
v -85.717449 17.389774 10.000000
v -86.608295 19.958098 11.500000
v -86.608295 19.958098 10.000000
v -87.620583 22.481024 11.500000
v -87.620583 22.481024 10.000000
v -88.752012 24.952817 11.500000
v -88.752012 24.952817 10.000000
v -90.000000 -40.000000 10.000000
v -90.000000 -40.000000 11.500000
v -100.000000 -50.000000 11.500000
v -100.000000 -50.000000 10.000000
v -98.880358 -49.937124 11.500000
v -98.880358 -49.937124 10.000000
v -97.774792 -49.749279 11.500000
v -97.774792 -49.749279 10.000000
v -96.697216 -49.438834 11.500000
v -96.697216 -49.438834 10.000000
v -95.661163 -49.009690 11.500000
v -95.661163 -49.009690 10.000000
v -94.679680 -48.467245 11.500000
v -94.679680 -48.467245 10.000000
v -93.765106 -47.818313 11.500000
v -93.765106 -47.818313 10.000000
v -92.928934 -47.071066 11.500000
v -92.928934 -47.071066 10.000000
v -92.181683 -46.234899 11.500000
v -92.181683 -46.234899 10.000000
v -91.532764 -45.320320 11.500000
v -91.532764 -45.320320 10.000000
v -90.990314 -44.338837 11.500000
v -90.990314 -44.338837 10.000000
v -90.561161 -43.302794 11.500000
v -90.561161 -43.302794 10.000000
v -90.250721 -42.225208 11.500000
v -90.250721 -42.225208 10.000000
v -90.062885 -41.119642 11.500000
v -90.062885 -41.119642 10.000000
v -112.632122 -50.000000 10.000000
v -112.632122 -50.000000 11.500000
v -164.952812 -51.247988 11.500000
v -164.952812 -51.247988 10.000000
v -162.481041 -52.379417 11.500000
v -162.481041 -52.379417 10.000000
v -159.958096 -53.391705 11.500000
v -159.958096 -53.391705 10.000000
v -157.389784 -54.282551 11.500000
v -157.389784 -54.282551 10.000000
v -154.781904 -55.049934 11.500000
v -154.781904 -55.049934 10.000000
v -152.140408 -55.692105 11.500000
v -152.140408 -55.692105 10.000000
v -149.471302 -56.207600 11.500000
v -149.471302 -56.207600 10.000000
v -146.780643 -56.595254 11.500000
v -146.780643 -56.595254 10.000000
v -144.074574 -56.854181 11.500000
v -144.074574 -56.854181 10.000000
v -141.359224 -56.983790 11.500000
v -141.359224 -56.983790 10.000000
v -138.640795 -56.983790 11.500000
v -138.640795 -56.983790 10.000000
v -135.925446 -56.854181 11.500000
v -135.925446 -56.854181 10.000000
v -133.219357 -56.595254 11.500000
v -133.219357 -56.595254 10.000000
v -130.528717 -56.207600 11.500000
v -130.528717 -56.207600 10.000000
v -127.859602 -55.692105 11.500000
v -127.859602 -55.692105 10.000000
v -125.218105 -55.049934 11.500000
v -125.218105 -55.049934 10.000000
v -122.610226 -54.282551 11.500000
v -122.610226 -54.282551 10.000000
v -120.041904 -53.391705 11.500000
v -120.041904 -53.391705 10.000000
v -117.518978 -52.379417 11.500000
v -117.518978 -52.379417 10.000000
v -115.047188 -51.247988 11.500000
v -115.047188 -51.247988 10.000000
usemtl 156,156,156
f 1 2 3
f 3 2 4
f 3 4 5
f 5 4 6
f 5 6 7
f 7 6 8
f 7 8 9
f 9 8 10
f 9 10 11
f 11 10 12
f 11 12 13
f 13 12 14
f 13 14 15
f 15 14 16
f 15 16 17
f 17 16 18
f 17 18 19
f 19 18 20
f 19 20 21
f 21 20 22
f 21 22 23
f 23 22 24
f 23 24 25
f 25 24 26
f 25 26 27
f 27 26 28
f 27 28 29
f 29 28 30
f 29 30 31
f 31 30 32
f 31 32 33
f 33 32 34
f 33 34 35
f 35 34 36
f 35 36 37
f 37 36 38
f 37 38 39
f 39 38 40
f 39 40 41
f 41 40 42
f 41 42 43
f 43 42 44
f 43 44 45
f 45 44 46
f 45 46 47
f 47 46 48
f 47 48 49
f 49 48 50
f 49 50 51
f 51 50 52
f 51 52 53
f 53 52 54
f 53 54 55
f 55 54 56
f 55 56 1
f 1 56 2
f 57 58 59
f 59 58 60
f 59 60 61
f 61 60 62
f 61 62 63
f 63 62 64
f 63 64 65
f 65 64 66
f 65 66 67
f 67 66 68
f 67 68 69
f 69 68 70
f 69 70 71
f 71 70 72
f 71 72 73
f 73 72 74
f 73 74 75
f 75 74 76
f 75 76 77
f 77 76 78
f 77 78 79
f 79 78 80
f 79 80 81
f 81 80 82
f 81 82 83
f 83 82 84
f 83 84 85
f 85 84 86
f 85 86 87
f 87 86 88
f 87 88 89
f 89 88 90
f 89 90 91
f 91 90 92
f 91 92 93
f 93 92 94
f 93 94 95
f 95 94 96
f 95 96 97
f 97 96 98
f 97 98 99
f 99 98 100
f 99 100 101
f 101 100 102
f 101 102 103
f 103 102 104
f 103 104 105
f 105 104 106
f 105 106 107
f 107 106 108
f 107 108 109
f 109 108 110
f 109 110 111
f 111 110 112
f 111 112 57
f 57 112 58
f 113 114 115
f 115 114 116
f 115 116 117
f 117 116 118
f 117 118 119
f 119 118 120
f 119 120 121
f 121 120 122
f 121 122 123
f 123 122 124
f 123 124 125
f 125 124 126
f 125 126 127
f 127 126 128
f 127 128 129
f 129 128 130
f 129 130 131
f 131 130 132
f 131 132 133
f 133 132 134
f 133 134 135
f 135 134 136
f 135 136 137
f 137 136 138
f 137 138 139
f 139 138 140
f 139 140 141
f 141 140 142
f 141 142 143
f 143 142 144
f 143 144 145
f 145 144 146
f 145 146 147
f 147 146 148
f 147 148 149
f 149 148 150
f 149 150 151
f 151 150 152
f 151 152 153
f 153 152 154
f 153 154 155
f 155 154 156
f 155 156 157
f 157 156 158
f 157 158 159
f 159 158 160
f 159 160 161
f 161 160 162
f 161 162 163
f 163 162 164
f 163 164 165
f 165 164 166
f 165 166 167
f 167 166 168
f 167 168 113
f 113 168 114
f 169 170 171
f 171 170 172
f 171 172 173
f 173 172 174
f 173 174 175
f 175 174 176
f 175 176 177
f 177 176 178
f 177 178 179
f 179 178 180
f 179 180 181
f 181 180 182
f 181 182 183
f 183 182 184
f 183 184 185
f 185 184 186
f 185 186 187
f 187 186 188
f 187 188 189
f 189 188 190
f 189 190 191
f 191 190 192
f 191 192 193
f 193 192 194
f 193 194 195
f 195 194 196
f 195 196 197
f 197 196 198
f 197 198 199
f 199 198 200
f 199 200 201
f 201 200 202
f 201 202 203
f 203 202 204
f 203 204 205
f 205 204 206
f 205 206 207
f 207 206 208
f 207 208 209
f 209 208 210
f 209 210 211
f 211 210 212
f 211 212 213
f 213 212 214
f 213 214 215
f 215 214 216
f 215 216 217
f 217 216 218
f 217 218 219
f 219 218 220
f 219 220 221
f 221 220 222
f 221 222 223
f 223 222 224
f 223 224 169
f 169 224 170
f 225 226 227
f 227 226 228
f 229 227 230
f 230 227 228
f 231 229 232
f 232 229 230
f 233 234 235
f 235 234 236
f 235 236 237
f 237 236 238
f 237 238 239
f 239 238 240
f 239 240 241
f 241 240 242
f 241 242 243
f 243 242 244
f 243 244 245
f 245 244 246
f 245 246 247
f 247 246 248
f 247 248 249
f 249 248 250
f 249 250 251
f 251 250 252
f 251 252 253
f 253 252 254
f 253 254 255
f 255 254 256
f 255 256 257
f 257 256 258
f 257 258 259
f 259 258 260
f 259 260 261
f 261 260 262
f 261 262 263
f 263 262 264
f 263 264 265
f 265 264 266
f 265 266 267
f 267 266 268
f 267 268 269
f 269 268 270
f 269 270 271
f 271 270 272
f 271 272 273
f 273 272 274
f 273 274 275
f 275 274 276
f 275 276 277
f 277 276 278
f 277 278 279
f 279 278 280
f 279 280 281
f 281 280 282
f 281 282 283
f 283 282 284
f 283 284 285
f 285 284 286
f 285 286 287
f 287 286 288
f 287 288 289
f 289 288 290
f 289 290 291
f 291 290 292
f 291 292 232
f 232 292 231
f 293 234 294
f 294 234 233
f 295 293 296
f 296 293 294
f 297 298 299
f 299 298 300
f 299 300 301
f 301 300 302
f 301 302 303
f 301 303 304
f 304 303 305
f 304 305 306
f 306 305 307
f 306 307 308
f 308 307 309
f 308 309 310
f 310 309 311
f 310 311 312
f 312 311 313
f 312 313 314
f 314 313 315
f 314 315 316
f 316 315 317
f 316 317 318
f 318 317 319
f 318 319 320
f 320 319 321
f 320 321 322
f 322 321 323
f 322 323 324
f 324 323 325
f 324 325 326
f 326 325 327
f 326 327 328
f 328 327 329
f 328 329 330
f 330 329 331
f 330 331 332
f 332 331 333
f 332 333 334
f 334 333 335
f 334 335 336
f 336 335 337
f 336 337 338
f 338 337 339
f 338 339 340
f 340 339 341
f 340 341 342
f 342 341 343
f 342 343 344
f 344 343 345
f 344 345 346
f 346 345 347
f 346 347 348
f 348 347 349
f 348 349 350
f 350 349 351
f 350 351 352
f 352 351 353
f 352 353 354
f 354 353 355
f 354 355 356
f 356 355 357
f 356 357 358
f 358 357 359
f 358 359 360
f 360 359 361
f 360 361 362
f 362 361 296
f 296 361 295
f 298 297 363
f 363 297 364
f 365 363 366
f 366 363 364
f 367 365 368
f 368 365 366
f 226 225 369
f 369 225 370
f 369 370 371
f 371 370 372
f 371 372 373
f 371 373 374
f 374 373 375
f 374 375 376
f 376 375 377
f 376 377 378
f 378 377 379
f 378 379 380
f 380 379 381
f 380 381 382
f 382 381 383
f 382 383 384
f 384 383 385
f 384 385 386
f 386 385 387
f 386 387 388
f 388 387 389
f 388 389 390
f 390 389 391
f 390 391 392
f 392 391 393
f 392 393 394
f 394 393 395
f 394 395 396
f 396 395 397
f 396 397 398
f 398 397 399
f 398 399 400
f 400 399 401
f 400 401 402
f 402 401 403
f 402 403 404
f 404 403 405
f 404 405 406
f 406 405 407
f 406 407 408
f 408 407 409
f 408 409 410
f 410 409 411
f 410 411 412
f 412 411 413
f 413 411 414
f 413 414 415
f 413 415 416
f 416 415 417
f 416 417 418
f 418 417 419
f 418 419 420
f 420 419 421
f 420 421 422
f 422 421 423
f 422 423 424
f 424 423 425
f 424 425 426
f 426 425 427
f 426 427 428
f 428 427 429
f 428 429 430
f 430 429 431
f 430 431 432
f 432 431 433
f 432 433 434
f 434 433 435
f 434 435 436
f 436 435 437
f 436 437 438
f 438 437 439
f 438 439 440
f 440 439 441
f 440 441 442
f 442 441 443
f 442 443 444
f 444 443 445
f 444 445 446
f 446 445 447
f 446 447 448
f 448 447 449
f 448 449 450
f 450 449 451
f 450 451 452
f 452 451 453
f 452 453 454
f 454 453 455
f 455 453 456
f 455 456 457
f 455 457 458
f 458 457 459
f 458 459 460
f 460 459 461
f 460 461 462
f 462 461 463
f 462 463 464
f 464 463 465
f 464 465 466
f 466 465 467
f 466 467 468
f 468 467 469
f 468 469 470
f 470 469 471
f 470 471 472
f 472 471 473
f 472 473 474
f 474 473 475
f 474 475 476
f 476 475 477
f 476 477 478
f 478 477 479
f 478 479 480
f 480 479 481
f 480 481 482
f 482 481 483
f 482 483 484
f 484 483 485
f 484 485 486
f 486 485 487
f 486 487 488
f 488 487 489
f 488 489 490
f 490 489 491
f 490 491 492
f 492 491 493
f 492 493 494
f 494 493 495
f 494 495 496
f 496 495 368
f 368 495 367
f 497 498 499
f 499 498 500
f 501 502 503
f 503 502 504
f 503 504 505
f 505 504 506
f 505 506 507
f 507 506 508
f 507 508 509
f 509 508 510
f 509 510 511
f 511 510 512
f 511 512 513
f 513 512 514
f 513 514 515
f 515 514 516
f 515 516 517
f 517 516 518
f 517 518 519
f 519 518 520
f 519 520 521
f 521 520 522
f 521 522 523
f 523 522 524
f 523 524 525
f 525 524 526
f 525 526 527
f 527 526 528
f 527 528 499
f 499 528 497
f 529 502 530
f 530 502 501
f 531 532 533
f 533 532 534
f 533 534 535
f 535 534 536
f 535 536 537
f 537 536 538
f 537 538 539
f 539 538 540
f 539 540 541
f 541 540 542
f 541 542 543
f 543 542 544
f 543 544 545
f 545 544 546
f 545 546 547
f 547 546 548
f 547 548 549
f 549 548 550
f 549 550 551
f 551 550 552
f 551 552 553
f 553 552 554
f 553 554 555
f 555 554 556
f 555 556 557
f 557 556 558
f 557 558 559
f 559 558 560
f 559 560 561
f 561 560 562
f 561 562 563
f 563 562 564
f 563 564 565
f 565 564 566
f 565 566 567
f 567 566 568
f 567 568 569
f 569 568 570
f 569 570 571
f 571 570 572
f 571 572 530
f 530 572 529
f 573 532 574
f 574 532 531
f 575 576 577
f 577 576 578
f 577 578 579
f 579 578 580
f 579 580 581
f 581 580 582
f 581 582 583
f 583 582 584
f 583 584 585
f 585 584 586
f 585 586 587
f 587 586 588
f 587 588 589
f 589 588 590
f 589 590 591
f 591 590 592
f 591 592 593
f 593 592 594
f 593 594 595
f 595 594 596
f 595 596 597
f 597 596 598
f 597 598 599
f 599 598 600
f 599 600 601
f 601 600 602
f 601 602 574
f 574 602 573
f 603 576 604
f 604 576 575
f 605 606 607
f 607 606 608
f 607 608 609
f 609 608 610
f 609 610 611
f 611 610 612
f 611 612 613
f 613 612 614
f 613 614 615
f 615 614 616
f 615 616 617
f 617 616 618
f 617 618 619
f 619 618 620
f 619 620 621
f 621 620 622
f 621 622 623
f 623 622 624
f 623 624 625
f 625 624 626
f 625 626 627
f 627 626 628
f 627 628 629
f 629 628 630
f 629 630 631
f 631 630 632
f 631 632 633
f 633 632 634
f 633 634 635
f 635 634 636
f 635 636 637
f 637 636 638
f 637 638 639
f 639 638 640
f 639 640 641
f 641 640 642
f 641 642 643
f 643 642 644
f 643 644 645
f 645 644 646
f 645 646 604
f 604 646 603
f 647 606 648
f 648 606 605
f 649 650 651
f 651 650 652
f 651 652 653
f 653 652 654
f 653 654 655
f 655 654 656
f 655 656 657
f 657 656 658
f 657 658 659
f 659 658 660
f 659 660 661
f 661 660 662
f 661 662 663
f 663 662 664
f 663 664 665
f 665 664 666
f 665 666 667
f 667 666 668
f 667 668 669
f 669 668 670
f 669 670 671
f 671 670 672
f 671 672 673
f 673 672 674
f 673 674 675
f 675 674 676
f 675 676 648
f 648 676 647
f 677 650 678
f 678 650 649
f 679 680 681
f 681 680 682
f 681 682 683
f 683 682 684
f 683 684 685
f 685 684 686
f 685 686 687
f 687 686 688
f 687 688 689
f 689 688 690
f 689 690 691
f 691 690 692
f 691 692 693
f 693 692 694
f 693 694 695
f 695 694 696
f 695 696 697
f 697 696 698
f 697 698 699
f 699 698 700
f 699 700 701
f 701 700 702
f 701 702 703
f 703 702 704
f 703 704 705
f 705 704 706
f 705 706 707
f 707 706 708
f 707 708 709
f 709 708 710
f 709 710 711
f 711 710 712
f 711 712 713
f 713 712 714
f 713 714 715
f 715 714 716
f 715 716 717
f 717 716 718
f 717 718 719
f 719 718 720
f 719 720 678
f 678 720 677
f 721 680 722
f 722 680 679
f 723 724 725
f 725 724 726
f 725 726 727
f 727 726 728
f 727 728 729
f 729 728 730
f 729 730 731
f 731 730 732
f 731 732 733
f 733 732 734
f 733 734 735
f 735 734 736
f 735 736 737
f 737 736 738
f 737 738 739
f 739 738 740
f 739 740 741
f 741 740 742
f 741 742 743
f 743 742 744
f 743 744 745
f 745 744 746
f 745 746 747
f 747 746 748
f 747 748 749
f 749 748 750
f 749 750 722
f 722 750 721
f 751 724 752
f 752 724 723
f 500 498 753
f 753 498 754
f 753 754 755
f 755 754 756
f 755 756 757
f 757 756 758
f 757 758 759
f 759 758 760
f 759 760 761
f 761 760 762
f 761 762 763
f 763 762 764
f 763 764 765
f 765 764 766
f 765 766 767
f 767 766 768
f 767 768 769
f 769 768 770
f 769 770 771
f 771 770 772
f 771 772 773
f 773 772 774
f 773 774 775
f 775 774 776
f 775 776 777
f 777 776 778
f 777 778 779
f 779 778 780
f 779 780 781
f 781 780 782
f 781 782 783
f 783 782 784
f 783 784 785
f 785 784 786
f 785 786 787
f 787 786 788
f 787 788 789
f 789 788 790
f 789 790 791
f 791 790 792
f 791 792 752
f 752 792 751
f 226 369 228
f 228 369 371
f 228 371 625
f 625 371 623
f 623 371 374
f 623 374 621
f 621 374 376
f 621 376 619
f 619 376 378
f 619 378 617
f 617 378 380
f 617 380 615
f 615 380 382
f 615 382 613
f 613 382 384
f 613 384 611
f 611 384 386
f 611 386 609
f 609 386 388
f 609 388 607
f 607 388 390
f 607 390 605
f 605 390 392
f 605 392 394
f 394 396 605
f 605 396 648
f 648 396 31
f 648 31 33
f 396 398 31
f 31 398 29
f 29 398 400
f 29 400 27
f 27 400 25
f 25 400 402
f 25 402 23
f 23 402 404
f 23 404 21
f 21 404 19
f 19 404 406
f 19 406 17
f 17 406 408
f 17 408 649
f 649 408 678
f 678 408 410
f 678 410 412
f 412 413 678
f 678 413 719
f 719 413 416
f 719 416 717
f 717 416 418
f 717 418 715
f 715 418 420
f 715 420 713
f 713 420 422
f 713 422 711
f 711 422 424
f 711 424 709
f 709 424 426
f 709 426 707
f 707 426 428
f 707 428 705
f 705 428 430
f 705 430 703
f 703 430 432
f 703 432 701
f 701 432 434
f 701 434 699
f 699 434 436
f 699 436 697
f 697 436 438
f 697 438 695
f 695 438 440
f 695 440 693
f 693 440 442
f 693 442 691
f 691 442 444
f 691 444 689
f 689 444 446
f 689 446 687
f 687 446 448
f 687 448 685
f 685 448 450
f 685 450 683
f 683 450 452
f 683 452 681
f 681 452 454
f 681 454 679
f 679 454 455
f 679 455 458
f 458 460 679
f 679 460 722
f 722 460 462
f 722 462 159
f 159 462 157
f 157 462 155
f 155 462 464
f 155 464 153
f 153 464 466
f 153 466 151
f 151 466 149
f 149 466 468
f 149 468 147
f 147 468 470
f 147 470 145
f 145 470 143
f 143 470 472
f 143 472 141
f 141 472 723
f 141 723 139
f 139 723 137
f 137 723 725
f 137 725 135
f 135 725 727
f 135 727 133
f 133 727 729
f 133 729 131
f 131 729 731
f 131 731 129
f 129 731 733
f 129 733 127
f 127 733 125
f 125 733 735
f 125 735 123
f 123 735 737
f 123 737 121
f 121 737 739
f 121 739 119
f 119 739 741
f 119 741 117
f 117 741 115
f 115 741 743
f 115 743 113
f 113 743 745
f 113 745 167
f 167 745 747
f 167 747 165
f 165 747 749
f 165 749 163
f 163 749 722
f 163 722 161
f 161 722 159
f 472 474 723
f 723 474 752
f 752 474 476
f 752 476 478
f 478 480 752
f 752 480 791
f 791 480 482
f 791 482 789
f 789 482 484
f 789 484 787
f 787 484 486
f 787 486 785
f 785 486 488
f 785 488 783
f 783 488 490
f 783 490 781
f 781 490 492
f 781 492 779
f 779 492 494
f 779 494 777
f 777 494 496
f 777 496 775
f 775 496 366
f 775 366 773
f 773 366 364
f 773 364 771
f 771 364 301
f 771 301 769
f 769 301 304
f 769 304 767
f 767 304 306
f 767 306 765
f 765 306 308
f 765 308 763
f 763 308 310
f 763 310 761
f 761 310 312
f 761 312 759
f 759 312 314
f 759 314 757
f 757 314 316
f 757 316 755
f 755 316 318
f 755 318 753
f 753 318 320
f 753 320 500
f 500 320 322
f 500 322 324
f 496 368 366
f 297 299 364
f 364 299 301
f 324 326 500
f 500 326 499
f 499 326 171
f 499 171 173
f 326 328 171
f 171 328 169
f 169 328 330
f 169 330 223
f 223 330 221
f 221 330 332
f 221 332 219
f 219 332 334
f 219 334 217
f 217 334 215
f 215 334 336
f 215 336 213
f 213 336 338
f 213 338 501
f 501 338 530
f 530 338 340
f 530 340 342
f 342 344 530
f 530 344 571
f 571 344 346
f 571 346 569
f 569 346 348
f 569 348 567
f 567 348 350
f 567 350 565
f 565 350 352
f 565 352 563
f 563 352 354
f 563 354 561
f 561 354 356
f 561 356 559
f 559 356 358
f 559 358 557
f 557 358 360
f 557 360 555
f 555 360 362
f 555 362 553
f 553 362 296
f 553 296 551
f 551 296 294
f 551 294 549
f 549 294 235
f 549 235 547
f 547 235 237
f 547 237 545
f 545 237 239
f 545 239 543
f 543 239 241
f 543 241 541
f 541 241 243
f 541 243 539
f 539 243 245
f 539 245 537
f 537 245 247
f 537 247 535
f 535 247 249
f 535 249 533
f 533 249 251
f 533 251 531
f 531 251 253
f 531 253 255
f 294 233 235
f 255 257 531
f 531 257 574
f 574 257 73
f 574 73 75
f 257 259 73
f 73 259 71
f 71 259 261
f 71 261 69
f 69 261 67
f 67 261 263
f 67 263 65
f 65 263 63
f 63 263 265
f 63 265 61
f 61 265 267
f 61 267 59
f 59 267 575
f 59 575 57
f 57 575 111
f 111 575 109
f 109 575 577
f 109 577 107
f 107 577 579
f 107 579 105
f 105 579 581
f 105 581 103
f 103 581 583
f 103 583 101
f 101 583 585
f 101 585 99
f 99 585 587
f 99 587 97
f 97 587 95
f 95 587 589
f 95 589 93
f 93 589 591
f 93 591 91
f 91 591 89
f 89 591 593
f 89 593 87
f 87 593 595
f 87 595 85
f 85 595 597
f 85 597 83
f 83 597 599
f 83 599 81
f 81 599 601
f 81 601 79
f 79 601 574
f 79 574 77
f 77 574 75
f 267 269 575
f 575 269 604
f 604 269 271
f 604 271 273
f 273 275 604
f 604 275 645
f 645 275 277
f 645 277 643
f 643 277 279
f 643 279 641
f 641 279 281
f 641 281 639
f 639 281 283
f 639 283 637
f 637 283 285
f 637 285 635
f 635 285 287
f 635 287 633
f 633 287 289
f 633 289 631
f 631 289 291
f 631 291 629
f 629 291 230
f 629 230 627
f 627 230 228
f 627 228 625
f 291 232 230
f 651 11 649
f 649 11 13
f 649 13 15
f 11 651 9
f 9 651 653
f 9 653 7
f 7 653 655
f 7 655 5
f 5 655 657
f 5 657 3
f 3 657 659
f 3 659 1
f 1 659 661
f 1 661 55
f 55 661 663
f 55 663 53
f 53 663 51
f 51 663 665
f 51 665 49
f 49 665 667
f 49 667 47
f 47 667 669
f 47 669 45
f 45 669 43
f 43 669 671
f 43 671 41
f 41 671 673
f 41 673 39
f 39 673 675
f 39 675 37
f 37 675 648
f 37 648 35
f 35 648 33
f 503 207 501
f 501 207 209
f 501 209 211
f 207 503 205
f 205 503 505
f 205 505 203
f 203 505 507
f 203 507 201
f 201 507 509
f 201 509 199
f 199 509 197
f 197 509 511
f 197 511 195
f 195 511 513
f 195 513 193
f 193 513 515
f 193 515 191
f 191 515 189
f 189 515 517
f 189 517 187
f 187 517 519
f 187 519 185
f 185 519 521
f 185 521 183
f 183 521 523
f 183 523 181
f 181 523 525
f 181 525 179
f 179 525 527
f 179 527 177
f 177 527 499
f 177 499 175
f 175 499 173
f 211 213 501
f 15 17 649
f 367 495 365
f 365 495 776
f 365 776 774
f 776 495 778
f 778 495 493
f 778 493 780
f 780 493 491
f 780 491 782
f 782 491 489
f 782 489 784
f 784 489 487
f 784 487 786
f 786 487 485
f 786 485 788
f 788 485 483
f 788 483 790
f 790 483 481
f 790 481 792
f 792 481 479
f 792 479 751
f 751 479 477
f 751 477 475
f 475 473 751
f 751 473 724
f 724 473 471
f 724 471 142
f 142 471 144
f 144 471 469
f 144 469 146
f 146 469 148
f 148 469 467
f 148 467 150
f 150 467 465
f 150 465 152
f 152 465 154
f 154 465 463
f 154 463 156
f 156 463 461
f 156 461 158
f 158 461 160
f 160 461 721
f 160 721 162
f 162 721 164
f 164 721 750
f 164 750 166
f 166 750 748
f 166 748 168
f 168 748 746
f 168 746 114
f 114 746 744
f 114 744 116
f 116 744 742
f 116 742 118
f 118 742 120
f 120 742 740
f 120 740 122
f 122 740 738
f 122 738 124
f 124 738 736
f 124 736 126
f 126 736 734
f 126 734 128
f 128 734 130
f 130 734 732
f 130 732 132
f 132 732 730
f 132 730 134
f 134 730 728
f 134 728 136
f 136 728 726
f 136 726 138
f 138 726 724
f 138 724 140
f 140 724 142
f 461 459 721
f 721 459 680
f 680 459 457
f 680 457 456
f 456 453 680
f 680 453 682
f 682 453 451
f 682 451 684
f 684 451 449
f 684 449 686
f 686 449 447
f 686 447 688
f 688 447 445
f 688 445 690
f 690 445 443
f 690 443 692
f 692 443 441
f 692 441 694
f 694 441 439
f 694 439 696
f 696 439 437
f 696 437 698
f 698 437 435
f 698 435 700
f 700 435 433
f 700 433 702
f 702 433 431
f 702 431 704
f 704 431 429
f 704 429 706
f 706 429 427
f 706 427 708
f 708 427 425
f 708 425 710
f 710 425 423
f 710 423 712
f 712 423 421
f 712 421 714
f 714 421 419
f 714 419 716
f 716 419 417
f 716 417 718
f 718 417 415
f 718 415 720
f 720 415 414
f 720 414 677
f 677 414 411
f 677 411 409
f 409 407 677
f 677 407 650
f 650 407 18
f 650 18 16
f 407 405 18
f 18 405 20
f 20 405 403
f 20 403 22
f 22 403 24
f 24 403 401
f 24 401 26
f 26 401 399
f 26 399 28
f 28 399 30
f 30 399 397
f 30 397 32
f 32 397 395
f 32 395 647
f 647 395 606
f 606 395 393
f 606 393 391
f 391 389 606
f 606 389 608
f 608 389 387
f 608 387 610
f 610 387 385
f 610 385 612
f 612 385 383
f 612 383 614
f 614 383 381
f 614 381 616
f 616 381 379
f 616 379 618
f 618 379 377
f 618 377 620
f 620 377 375
f 620 375 622
f 622 375 373
f 622 373 624
f 624 373 372
f 624 372 626
f 626 372 227
f 626 227 628
f 628 227 229
f 628 229 630
f 630 229 292
f 630 292 632
f 632 292 290
f 632 290 634
f 634 290 288
f 634 288 636
f 636 288 286
f 636 286 638
f 638 286 284
f 638 284 640
f 640 284 282
f 640 282 642
f 642 282 280
f 642 280 644
f 644 280 278
f 644 278 646
f 646 278 276
f 646 276 603
f 603 276 274
f 603 274 272
f 372 370 227
f 227 370 225
f 229 231 292
f 272 270 603
f 603 270 576
f 576 270 268
f 576 268 60
f 60 268 62
f 62 268 266
f 62 266 64
f 64 266 264
f 64 264 66
f 66 264 68
f 68 264 262
f 68 262 70
f 70 262 72
f 72 262 260
f 72 260 74
f 74 260 258
f 74 258 573
f 573 258 532
f 532 258 256
f 532 256 254
f 254 252 532
f 532 252 534
f 534 252 250
f 534 250 536
f 536 250 248
f 536 248 538
f 538 248 246
f 538 246 540
f 540 246 244
f 540 244 542
f 542 244 242
f 542 242 544
f 544 242 240
f 544 240 546
f 546 240 238
f 546 238 548
f 548 238 236
f 548 236 550
f 550 236 293
f 550 293 552
f 552 293 295
f 552 295 554
f 554 295 361
f 554 361 556
f 556 361 359
f 556 359 558
f 558 359 357
f 558 357 560
f 560 357 355
f 560 355 562
f 562 355 353
f 562 353 564
f 564 353 351
f 564 351 566
f 566 351 349
f 566 349 568
f 568 349 347
f 568 347 570
f 570 347 345
f 570 345 572
f 572 345 343
f 572 343 529
f 529 343 341
f 529 341 339
f 236 234 293
f 339 337 529
f 529 337 502
f 502 337 214
f 502 214 212
f 337 335 214
f 214 335 216
f 216 335 333
f 216 333 218
f 218 333 220
f 220 333 331
f 220 331 222
f 222 331 329
f 222 329 224
f 224 329 170
f 170 329 327
f 170 327 172
f 172 327 325
f 172 325 497
f 497 325 498
f 498 325 323
f 498 323 321
f 321 319 498
f 498 319 754
f 754 319 317
f 754 317 756
f 756 317 315
f 756 315 758
f 758 315 313
f 758 313 760
f 760 313 311
f 760 311 762
f 762 311 309
f 762 309 764
f 764 309 307
f 764 307 766
f 766 307 305
f 766 305 768
f 768 305 303
f 768 303 770
f 770 303 302
f 770 302 772
f 772 302 363
f 772 363 774
f 774 363 365
f 302 300 363
f 363 300 298
f 528 178 497
f 497 178 176
f 497 176 174
f 178 528 180
f 180 528 526
f 180 526 182
f 182 526 524
f 182 524 184
f 184 524 522
f 184 522 186
f 186 522 520
f 186 520 188
f 188 520 518
f 188 518 190
f 190 518 516
f 190 516 192
f 192 516 194
f 194 516 514
f 194 514 196
f 196 514 512
f 196 512 198
f 198 512 510
f 198 510 200
f 200 510 202
f 202 510 508
f 202 508 204
f 204 508 506
f 204 506 206
f 206 506 504
f 206 504 208
f 208 504 502
f 208 502 210
f 210 502 212
f 602 80 573
f 573 80 78
f 573 78 76
f 80 602 82
f 82 602 600
f 82 600 84
f 84 600 598
f 84 598 86
f 86 598 596
f 86 596 88
f 88 596 594
f 88 594 90
f 90 594 592
f 90 592 92
f 92 592 94
f 94 592 590
f 94 590 96
f 96 590 588
f 96 588 98
f 98 588 100
f 100 588 586
f 100 586 102
f 102 586 584
f 102 584 104
f 104 584 582
f 104 582 106
f 106 582 580
f 106 580 108
f 108 580 578
f 108 578 110
f 110 578 576
f 110 576 112
f 112 576 58
f 58 576 60
f 676 38 647
f 647 38 36
f 647 36 34
f 38 676 40
f 40 676 674
f 40 674 42
f 42 674 672
f 42 672 44
f 44 672 670
f 44 670 46
f 46 670 48
f 48 670 668
f 48 668 50
f 50 668 666
f 50 666 52
f 52 666 664
f 52 664 54
f 54 664 56
f 56 664 662
f 56 662 2
f 2 662 660
f 2 660 4
f 4 660 658
f 4 658 6
f 6 658 656
f 6 656 8
f 8 656 654
f 8 654 10
f 10 654 652
f 10 652 12
f 12 652 650
f 12 650 14
f 14 650 16
f 174 172 497
f 76 74 573
f 34 32 647
# 792 vertices
# 0 texture params
# 0 normals
# 1600 facets

# 1 groups
